<?xml version="1.0" encoding="UTF-8" standalone="no"?>
<!-- Created with Inkscape (http://www.inkscape.org/) -->

<svg
   version="1.1"
   id="svg1"
   width="34.41848"
   height="26.125744"
   viewBox="0 0 34.41848 26.125743"
   sodipodi:docname="g1559.svg"
   inkscape:export-filename="g155h9.svg"
   inkscape:export-xdpi="500"
   inkscape:export-ydpi="500"
   xmlns:inkscape="http://www.inkscape.org/namespaces/inkscape"
   xmlns:sodipodi="http://sodipodi.sourceforge.net/DTD/sodipodi-0.dtd"
   xmlns="http://www.w3.org/2000/svg"
   xmlns:svg="http://www.w3.org/2000/svg">
  <sodipodi:namedview
     id="namedview1"
     pagecolor="#505050"
     bordercolor="#eeeeee"
     borderopacity="1"
     inkscape:showpageshadow="0"
     inkscape:pageopacity="0"
     inkscape:pagecheckerboard="0"
     inkscape:deskcolor="#505050"
     showguides="true"
     showgrid="false"
     inkscape:export-bgcolor="#ffffff00">
    <sodipodi:guide
       position="168.05204,25.510623"
       orientation="1,0"
       id="guide3"
       inkscape:locked="false" />
    <inkscape:grid
       id="grid3"
       units="px"
       originx="-55.260017"
       originy="-37.529808"
       spacingx="0.99999999"
       spacingy="0.99999997"
       empcolor="#0099e5"
       empopacity="0.30196078"
       color="#0099e5"
       opacity="0.14901961"
       empspacing="5"
       enabled="true"
       visible="false" />
    <inkscape:page
       x="0"
       y="0"
       width="34.41848"
       height="26.125744"
       id="page2"
       margin="0"
       bleed="0" />
  </sodipodi:namedview>
  <defs
     id="defs1" />
  <g
     id="layer1"
     style="display:inline;fill:#008fed;fill-opacity:1"
     transform="matrix(0.24061611,0,0,0.24895216,-46.030783,-41.970658)"
     inkscape:export-filename="layerhh1.svg"
     inkscape:export-xdpi="1004.1118"
     inkscape:export-ydpi="1004.1118">
    <g
       id="g199"
       style="display:inline;mix-blend-mode:normal;fill:#008fed;fill-opacity:1;fill-rule:nonzero;stroke-width:0;stroke-dasharray:none"
       transform="matrix(0.79858755,0,0,0.79858755,56.12062,-10.695392)">
      <path
         style="display:inline;mix-blend-mode:normal;fill:#008fed;fill-opacity:1;fill-rule:nonzero;stroke:#000000;stroke-width:0;stroke-linecap:round;stroke-linejoin:round;stroke-dasharray:none;stroke-dashoffset:0;stroke-opacity:1;paint-order:normal"
         d="m 212.59926,340.24671 c -4.32677,-4.4e-4 -7.83443,3.50721 -7.83399,7.83398 6.4e-4,4.32601 3.50798,7.83248 7.83399,7.83204 4.32601,4.4e-4 7.83334,-3.50603 7.83398,-7.83204 4.4e-4,-4.32677 -3.50721,-7.83442 -7.83398,-7.83398 z"
         id="path196" />
      <path
         style="display:inline;mix-blend-mode:normal;fill:#008fed;fill-opacity:1;fill-rule:nonzero;stroke:#000000;stroke-width:0;stroke-linecap:round;stroke-linejoin:round;stroke-dasharray:none;stroke-dashoffset:0;stroke-opacity:1;paint-order:normal"
         d="m 253.85211,300.97132 -19.48047,0.2207 h -20.2539 -24.14063 -0.0664 c -13.35774,0.64039 -20.54693,10.14195 -20.63282,20.63087 0.0836,2.93741 0.0664,6.36718 0.0664,6.36718 4.78889,0.0186 7.93632,0.15187 18.46875,0.20703 l 21.57617,0.15625 c 9.13208,-0.0333 27.01983,0.14779 30.11133,-0.62108 8.25795,-2.05381 13.36545,-7.43523 14.50977,-19.79102 0.16542,-1.67183 -0.003,-6.68309 -0.15821,-7.16993 z"
         id="path197" />
      <path
         id="path198"
         style="display:inline;mix-blend-mode:normal;fill:#008fed;fill-opacity:1;fill-rule:nonzero;stroke:#000000;stroke-width:0;stroke-linecap:round;stroke-linejoin:round;stroke-dasharray:none;stroke-dashoffset:0;stroke-opacity:1;paint-order:normal"
         d="m 259.98555,260.48694 0.0625,15.49024 c 0,0 0.1326,21.54187 0.21522,26.22461 l 0.10249,8.64121 c 0.0934,7.87419 7.03438,13.44825 8.8458,14.59832 4.58715,2.91238 10.75066,2.98737 10.75066,2.98737 l 14.69949,0.0333 c 0.49356,14.35589 12.34038,26.06607 26.8164,26.11283 14.86715,1.4e-4 26.91953,-11.95868 26.91993,-26.71093 -0.0745,-13.16875 -9.81015,-24.31877 -22.93555,-26.26758 -2.08126,-0.20696 -4.08335,-0.11831 -6.31445,-0.1836 H 299.9664 l -12.77539,-0.2207 -0.0439,-11.3618 -0.15306,-11.25737 c 0,0 -0.0474,-2.27592 -0.31174,-3.96233 -0.22456,-1.43261 -0.48966,-3.32245 -2.5157,-5.81603 -1.87389,-2.30632 -5.01185,-6.2303 -11.78463,-7.46232 -2.64372,-0.48091 -12.39636,-0.84518 -12.39636,-0.84518 z m 61.72699,60.01172 c 4.32677,-4.4e-4 7.83442,3.50723 7.83398,7.834 -6.4e-4,4.32601 -3.50797,7.83246 -7.83398,7.83202 -4.32601,4.4e-4 -7.83334,-3.50601 -7.83398,-7.83202 -4.4e-4,-4.32677 3.50721,-7.83443 7.83398,-7.834 z" />
      <path
         id="path199"
         style="display:inline;mix-blend-mode:normal;fill:#008fed;fill-opacity:1;fill-rule:nonzero;stroke:#000000;stroke-width:0;stroke-linecap:round;stroke-linejoin:round;stroke-dasharray:none;stroke-dashoffset:0;stroke-opacity:1;paint-order:normal"
         d="m 270.97348,224.8905 a 15.569686,15.569686 0 0 0 -11.69784,18.6546 15.569686,15.569686 0 0 0 18.65461,11.69784 15.569686,15.569686 0 0 0 10.94142,-9.30734 13.102359,13.102359 0 0 1 -6.53887,3.7594 13.102359,13.102359 0 0 1 -15.69902,-9.84357 13.102359,13.102359 0 0 1 8.65294,-15.32562 15.569686,15.569686 0 0 0 -4.31324,0.36469 z" />
    </g>
  </g>
</svg>
